<svg xmlns="http://www.w3.org/2000/svg" viewBox="0 0 800 520"><defs><radialGradient id="bg"><stop stop-color="#83dee7" stop-opacity=".22"/><stop offset="1" stop-color="#111217"/></radialGradient><linearGradient id="shine" x2="1" y2="1"><stop stop-color="#83dee7"/><stop offset="1" stop-color="#fff" stop-opacity=".15"/></linearGradient><filter id="glow"><feGaussianBlur stdDeviation="14"/></filter></defs><path fill="#111217" d="M0 0h800v520H0z"/><path fill="url(#bg)" d="M0 0h800v520H0z"/><rect x="100" y="75" width="600" height="354" rx="12" fill="#181d23" stroke="#ffffff" stroke-opacity=".15"/><path d="M100 109h600" stroke="#ffffff" stroke-opacity=".1"/><g fill="#637780"><circle cx="118" cy="92" r="3"/><circle cx="131" cy="92" r="3"/><circle cx="144" cy="92" r="3"/></g><rect x="118" y="126" width="246" height="285" rx="5" fill="#253c42"/><path d="M118 320 178 220l60 83 44-114 82 140v82H118" fill="#3d6467"/><circle cx="299" cy="170" r="24" fill="#b4d2bc"/><text x="141" y="366" fill="#f0fbf7" font-family="sans-serif" font-size="24">Go a little further.</text><text x="389" y="156" fill="#e9ffff" font-family="sans-serif" font-size="20">Find your escape.</text><rect x="389" y="183" width="284" height="52" rx="5" fill="#243239"/><circle cx="414" cy="209" r="13" fill="#68adb5"/><path d="M439 204h120m-120 10h75" stroke="#adc9cd" stroke-width="3"/><rect x="389" y="250" width="284" height="52" rx="5" fill="#243239"/><circle cx="414" cy="276" r="13" fill="#68adb5"/><path d="M439 271h120m-120 10h75" stroke="#adc9cd" stroke-width="3"/><rect x="389" y="317" width="284" height="52" rx="5" fill="#243239"/><circle cx="414" cy="343" r="13" fill="#68adb5"/><path d="M439 338h120m-120 10h75" stroke="#adc9cd" stroke-width="3"/><path d="M24 36h20m-10-10v20M756 484h20m-10-10v20" stroke="#83dee7" opacity=".4"/></svg>