<svg xmlns="http://www.w3.org/2000/svg" viewBox="0 0 800 520"><defs><radialGradient id="bg"><stop stop-color="#a891ff" stop-opacity=".22"/><stop offset="1" stop-color="#111217"/></radialGradient><linearGradient id="shine" x2="1" y2="1"><stop stop-color="#a891ff"/><stop offset="1" stop-color="#fff" stop-opacity=".15"/></linearGradient><filter id="glow"><feGaussianBlur stdDeviation="14"/></filter></defs><path fill="#111217" d="M0 0h800v520H0z"/><path fill="url(#bg)" d="M0 0h800v520H0z"/><g transform="translate(400 250) rotate(30)"><rect x="-140" y="-140" width="280" height="280" fill="none" stroke="#d6caff" stroke-opacity="0.15" stroke-width="2"/><rect x="-120" y="-120" width="240" height="240" fill="none" stroke="#d6caff" stroke-opacity="0.27" stroke-width="2"/><rect x="-100" y="-100" width="200" height="200" fill="none" stroke="#d6caff" stroke-opacity="0.39" stroke-width="2"/><rect x="-80" y="-80" width="160" height="160" fill="none" stroke="#d6caff" stroke-opacity="0.51" stroke-width="2"/><rect x="-60" y="-60" width="120" height="120" fill="none" stroke="#d6caff" stroke-opacity="0.63" stroke-width="2"/><rect x="-40" y="-40" width="80" height="80" fill="none" stroke="#d6caff" stroke-opacity="0.75" stroke-width="2"/></g><circle cx="400" cy="250" r="14" fill="#e2d7ff"/><path d="M125 250h80m390 0h80M400 45v45m0 320v45" stroke="#ad96ee" stroke-opacity=".45"/><text x="46" y="465" fill="#fafafa" font-family="sans-serif" font-weight="600" font-size="26" letter-spacing="3">ECHO</text><text x="46" y="489" fill="#b8a6ee" font-family="monospace" font-size="11" letter-spacing="2">A DIFFERENT PERSPECTIVE</text><path d="M24 36h20m-10-10v20M756 484h20m-10-10v20" stroke="#a891ff" opacity=".4"/></svg>