<svg xmlns="http://www.w3.org/2000/svg" viewBox="0 0 800 520"><defs><radialGradient id="bg"><stop stop-color="#ab8aff" stop-opacity=".22"/><stop offset="1" stop-color="#111217"/></radialGradient><linearGradient id="shine" x2="1" y2="1"><stop stop-color="#ab8aff"/><stop offset="1" stop-color="#fff" stop-opacity=".15"/></linearGradient><filter id="glow"><feGaussianBlur stdDeviation="14"/></filter></defs><path fill="#111217" d="M0 0h800v520H0z"/><path fill="url(#bg)" d="M0 0h800v520H0z"/><circle cx="17" cy="31" r="1.8" fill="#fff" opacity="0.15"/><circle cx="130" cy="104" r="1" fill="#fff" opacity="0.27"/><circle cx="243" cy="177" r="1" fill="#fff" opacity="0.39"/><circle cx="356" cy="250" r="1.8" fill="#fff" opacity="0.51"/><circle cx="469" cy="323" r="1" fill="#fff" opacity="0.15"/><circle cx="582" cy="396" r="1" fill="#fff" opacity="0.27"/><circle cx="695" cy="469" r="1.8" fill="#fff" opacity="0.39"/><circle cx="8" cy="22" r="1" fill="#fff" opacity="0.51"/><circle cx="121" cy="95" r="1" fill="#fff" opacity="0.15"/><circle cx="234" cy="168" r="1.8" fill="#fff" opacity="0.27"/><circle cx="347" cy="241" r="1" fill="#fff" opacity="0.39"/><circle cx="460" cy="314" r="1" fill="#fff" opacity="0.51"/><circle cx="573" cy="387" r="1.8" fill="#fff" opacity="0.15"/><circle cx="686" cy="460" r="1" fill="#fff" opacity="0.27"/><circle cx="799" cy="13" r="1" fill="#fff" opacity="0.39"/><circle cx="112" cy="86" r="1.8" fill="#fff" opacity="0.51"/><circle cx="225" cy="159" r="1" fill="#fff" opacity="0.15"/><circle cx="338" cy="232" r="1" fill="#fff" opacity="0.27"/><circle cx="451" cy="305" r="1.8" fill="#fff" opacity="0.39"/><circle cx="564" cy="378" r="1" fill="#fff" opacity="0.51"/><circle cx="677" cy="451" r="1" fill="#fff" opacity="0.15"/><circle cx="790" cy="4" r="1.8" fill="#fff" opacity="0.27"/><circle cx="103" cy="77" r="1" fill="#fff" opacity="0.39"/><circle cx="216" cy="150" r="1" fill="#fff" opacity="0.51"/><circle cx="329" cy="223" r="1.8" fill="#fff" opacity="0.15"/><circle cx="442" cy="296" r="1" fill="#fff" opacity="0.27"/><circle cx="555" cy="369" r="1" fill="#fff" opacity="0.39"/><circle cx="668" cy="442" r="1.8" fill="#fff" opacity="0.51"/><circle cx="781" cy="515" r="1" fill="#fff" opacity="0.15"/><circle cx="94" cy="68" r="1" fill="#fff" opacity="0.27"/><circle cx="207" cy="141" r="1.8" fill="#fff" opacity="0.39"/><circle cx="320" cy="214" r="1" fill="#fff" opacity="0.51"/><circle cx="433" cy="287" r="1" fill="#fff" opacity="0.15"/><circle cx="546" cy="360" r="1.8" fill="#fff" opacity="0.27"/><circle cx="659" cy="433" r="1" fill="#fff" opacity="0.39"/><circle cx="772" cy="506" r="1" fill="#fff" opacity="0.51"/><circle cx="85" cy="59" r="1.8" fill="#fff" opacity="0.15"/><circle cx="198" cy="132" r="1" fill="#fff" opacity="0.27"/><circle cx="311" cy="205" r="1" fill="#fff" opacity="0.39"/><circle cx="424" cy="278" r="1.8" fill="#fff" opacity="0.51"/><circle cx="537" cy="351" r="1" fill="#fff" opacity="0.15"/><circle cx="650" cy="424" r="1" fill="#fff" opacity="0.27"/><circle cx="763" cy="497" r="1.8" fill="#fff" opacity="0.39"/><circle cx="76" cy="50" r="1" fill="#fff" opacity="0.51"/><circle cx="189" cy="123" r="1" fill="#fff" opacity="0.15"/><ellipse cx="438" cy="253" rx="227" ry="73" fill="none" stroke="#b293ff" stroke-opacity=".4" transform="rotate(-27 438 253)"/><circle cx="440" cy="250" r="105" fill="#ac8cff" opacity=".23" filter="url(#glow)"/><circle cx="440" cy="250" r="85" fill="url(#shine)"/><path d="M404 173q-90 105 64 158a85 85 0 0 1-64-158" fill="#252034" opacity=".6"/><path d="m217 242 28-10-10 29-7-12z" fill="#f0e8ff"/><circle cx="608" cy="178" r="9" fill="#e9d9ff"/><text x="46" y="465" fill="#fafafa" font-family="sans-serif" font-weight="600" font-size="26" letter-spacing="3">ORBIT</text><text x="46" y="489" fill="#b293ff" font-family="monospace" font-size="11" letter-spacing="2">A JOURNEY INTO THE UNKNOWN</text><path d="M24 36h20m-10-10v20M756 484h20m-10-10v20" stroke="#ab8aff" opacity=".4"/></svg>